# xmcd CD database file
#
# Track frame offsets:
#	183
#	12875
#	27378
#	39873
#	53750
#	66850
#	78675
#	92030
#	103140
#	115955
#	128855
#	142175
#	155283
#	167955
#	178650
#	192258
#	207080
#	220205
#	233873
#
# Disc length: 3280 seconds
#
# Revision: 0
# Processed by: cddbd v1.5PL3 Copyright (c) Steve Scherf et al.
# Submitted via: CDex 1.50
#
DISCID=0e0cce13
DTITLE=Tampa Red - Keep Jumping
DYEAR=1900
DGENRE=Blues
TTITLE0=The Woman I Love
TTITLE1=Lula Mae
TTITLE2=Keep Jumping
TTITLE3=You May Be Down Some Day
TTITLE4=Grieving Blues
TTITLE5=It's Good Like That
TTITLE6=I'll Dig You Sooner Or Later
TTITLE7=Boogie Woogie Woman
TTITLE8=True Love
TTITLE9=Midnight Boogie
TTITLE10=I Miss My Lovin' Blues
TTITLE11=Since My Baby's Been Gone
TTITLE12=I Won't Let Her Do It
TTITLE13=She's Dynamite
TTITLE14=Pretty Baby Blues
TTITLE15=Early In The Morning
TTITLE16=All Mized Up Over You
TTITLE17=So Crazy About You Baby
TTITLE18=Ramblers Blues - 2
EXTD=
EXTT0=
EXTT1=
EXTT2=
EXTT3=
EXTT4=
EXTT5=
EXTT6=
EXTT7=
EXTT8=
EXTT9=
EXTT10=
EXTT11=
EXTT12=
EXTT13=
EXTT14=
EXTT15=
EXTT16=
EXTT17=
EXTT18=
PLAYORDER=
